<svg width="400" height="600" viewBox="0 0 400 600" xmlns="http://www.w3.org/2000/svg">
  <path d="M160,30 C145,32 130,50 125,70 C120,90 120,120 120,160 C120,180 115,200 110,220 C105,240 100,260 95,280 C90,300 85,320 80,340 L75,360 C70,380 65,400 60,420 C55,440 50,460 50,480 C50,500 70,520 90,530 C110,540 130,550 150,560 C170,570 190,580 210,570 C230,560 250,540 260,520 C270,500 280,480 290,460 C300,440 310,420 320,400 C330,380 340,360 350,340 C360,320 370,300 370,280 C370,260 350,240 330,230 C310,220 290,210 270,210 C250,210 230,220 220,240 C210,260 200,280 190,300 C180,320 170,340 160,360 C150,380 140,400 135,380 C130,360 130,340 130,320 C130,300 135,280 140,260 C145,240 150,220 155,200 C160,180 165,160 170,140 C175,120 180,100 185,80 C190,60 195,40 180,35 C165,30 150,28 160,30" fill="#333" />
</svg> 